<svg xmlns="http://www.w3.org/2000/svg" xmlns:xlink="http://www.w3.org/1999/xlink" viewBox="0 0 197 37" version="1.1"><script xmlns=""/>
    <!-- Generator: Sketch 52.4 (67378) - http://www.bohemiancoding.com/sketch -->
    <title>mlc_logo_white</title>
    <desc>Created with Sketch.</desc>
    <g id="Page-1" stroke="none" stroke-width="1" fill="none" fill-rule="evenodd">
        <g id="MLCworks_r12-FINAL-01" transform="translate(-11.000000, -19.000000)" fill="#FFFFFF">
            <g id="mlc_logo_white" transform="translate(11.000000, 19.000000)">
                <path d="M39.122,2.636 L39.122,34.714 C39.122,35.404 38.529,35.947 37.888,35.947 L30.14,35.947 C29.499,35.947 28.906,35.404 28.906,34.714 L28.906,19.464 C28.906,19.464 24.021,26.521 23.231,27.706 C22.294,29.137 21.75,28.989 21.355,28.989 C20.912,28.989 18.543,28.989 18.148,28.989 C17.753,28.989 17.21,29.137 16.272,27.706 C15.434,26.521 10.548,19.464 10.548,19.464 L10.548,34.714 C10.548,35.404 10.005,35.947 9.314,35.947 L1.616,35.947 C0.925,35.947 0.382,35.404 0.382,34.714 L0.382,2.636 C0.382,1.994 0.925,1.402 1.616,1.402 L7.439,1.402 C8.278,1.402 8.673,1.698 9.265,2.438 C9.808,3.179 19.727,16.849 19.727,16.849 C19.727,16.849 29.696,3.179 30.239,2.438 C30.831,1.698 31.226,1.402 32.065,1.402 L37.888,1.402 C38.529,1.402 39.122,1.994 39.122,2.636" id="Fill-1"/>
                <path d="M67.991,28.692 L67.991,34.714 C67.991,35.404 67.449,35.947 66.758,35.947 L42.823,35.947 C42.132,35.947 41.589,35.404 41.589,34.714 L41.589,2.636 C41.589,1.945 42.132,1.402 42.823,1.402 L50.571,1.402 C51.212,1.402 51.755,1.945 51.755,2.636 L51.755,27.459 L66.758,27.459 C67.449,27.459 67.991,28.002 67.991,28.692" id="Fill-2"/>
                <path d="M127.676,18.283 C127.368,19.103 122.376,33.806 122.103,34.388 C121.863,35.003 121.658,35.242 121.043,35.242 L115.675,35.242 C115.059,35.242 114.854,35.003 114.58,34.388 C114.512,34.251 113.315,29.737 113.315,29.737 C113.315,29.737 112.084,34.251 112.016,34.388 C111.742,35.003 111.537,35.242 110.922,35.242 L105.588,35.242 C104.972,35.242 104.767,35.003 104.493,34.388 C104.22,33.806 99.228,19.103 98.92,18.283 C98.646,17.496 98.954,17.086 99.535,17.086 C99.98,17.086 104.562,17.086 104.562,17.086 C105.588,17.086 105.793,17.394 106.101,18.283 C106.271,18.762 108.255,28.027 108.255,28.027 C108.255,28.027 110.341,18.453 110.409,18.283 C110.717,17.394 110.922,17.086 111.947,17.086 C111.947,17.086 113.486,17.086 114.683,17.086 C115.709,17.086 115.88,17.394 116.188,18.283 C116.256,18.453 118.342,28.027 118.342,28.027 C118.342,28.027 120.325,18.762 120.495,18.283 C120.838,17.394 121.009,17.086 122.034,17.086 C122.034,17.086 126.616,17.086 127.061,17.086 C127.642,17.086 127.95,17.496 127.676,18.283" id="Fill-3"/>
                <path d="M140.396,26.113 C140.396,23.959 138.72,22.215 136.634,22.215 C134.583,22.215 132.907,23.959 132.907,26.113 C132.907,28.267 134.583,30.011 136.634,30.011 C138.72,30.011 140.396,28.267 140.396,26.113 Z M146.516,26.113 C146.516,31.379 142.003,35.652 136.634,35.652 C131.267,35.652 126.753,31.379 126.753,26.113 C126.753,20.847 131.267,16.607 136.634,16.607 C142.003,16.607 146.516,20.847 146.516,26.113 Z" id="Fill-4"/>
                <path d="M162.894,18.248 C162.826,18.864 162.518,22.283 162.449,22.83 C162.347,23.617 161.868,23.993 161.185,23.787 C160.467,23.549 159.27,23.206 157.937,23.24 C156.671,23.274 154.653,23.822 154.653,26.728 C154.653,27.651 154.653,34.422 154.653,34.422 L154.619,34.456 L154.619,34.422 C154.619,34.866 154.243,35.242 153.799,35.242 L148.738,35.242 C148.294,35.242 147.884,34.866 147.884,34.422 L147.884,17.94 C147.884,17.462 148.294,17.086 148.738,17.086 L153.799,17.086 C154.243,17.086 154.619,17.462 154.619,17.94 L154.619,18.796 C155.201,17.975 157.492,16.607 159.851,16.607 C161.185,16.607 162.107,16.847 162.552,17.018 C162.963,17.223 162.929,17.77 162.894,18.248" id="Fill-5"/>
                <path d="M181.426,35.242 C180.537,35.242 176.4,35.242 176.4,35.242 C175.784,35.242 175.408,34.969 175.101,34.388 C174.93,34.114 173.493,31.379 172.263,29.088 L170.689,29.088 L170.689,34.388 C170.689,34.866 170.313,35.242 169.835,35.242 L164.809,35.242 C164.364,35.242 163.953,34.866 163.953,34.388 L163.953,12.162 C163.953,11.718 164.33,11.307 164.809,11.307 L169.835,11.307 C170.313,11.307 170.689,11.718 170.689,12.162 L170.689,23.206 L172.229,23.206 C173.322,20.949 174.622,18.214 174.759,17.94 C175.101,17.325 175.442,17.086 176.058,17.086 C176.058,17.086 180.229,17.086 181.118,17.086 C182.11,17.086 182.315,17.496 181.939,18.146 C181.665,18.692 178.588,24.984 177.938,26.147 C178.622,27.31 182.008,33.636 182.281,34.183 C182.623,34.866 182.418,35.242 181.426,35.242" id="Fill-6"/>
                <path d="M196.505,30.455 C196.197,32.951 195.171,35.652 188.982,35.652 C185.495,35.652 183.99,34.935 183.58,34.695 C183.17,34.49 182.896,34.251 182.999,33.361 C183.067,32.404 183.136,31.892 183.238,31.345 C183.341,30.558 183.717,29.977 184.845,30.318 C186.008,30.66 186.965,30.763 187.718,30.763 C188.538,30.798 189.804,30.728 189.974,29.84 C190.111,29.122 188.743,28.472 186.726,27.72 C184.879,27.036 182.588,25.36 182.828,21.668 C182.999,19.24 184.742,16.607 190.214,16.607 C191.889,16.607 193.872,16.983 194.521,17.188 C195.138,17.394 195.582,17.77 195.514,18.659 C195.445,19.445 195.309,20.471 195.24,20.916 C195.138,21.497 194.863,21.941 193.77,21.702 C192.505,21.429 191.923,21.36 191,21.36 C190.146,21.36 189.427,21.702 189.427,22.352 C189.427,23.103 189.666,23.274 192.572,24.54 C195.41,25.736 196.813,27.993 196.505,30.455" id="Fill-7"/>
                <path d="M68.156,25.259 C71.058,31.608 77.668,36.047 85.185,36.047 C85.56,36.047 85.93,36.034 86.298,36.015 C86.441,36.006 86.583,35.995 86.726,35.983 C86.851,35.974 86.976,35.963 87.102,35.951 C92.322,35.41 96.893,32.762 99.893,28.898 C100.039,28.696 100.187,28.495 100.324,28.285 C100.353,28.246 100.388,28.195 100.413,28.163 C100.413,28.162 100.413,28.162 100.413,28.162 C100.545,27.97 100.623,27.765 100.623,27.569 C100.622,27.549 100.624,27.528 100.622,27.509 C100.619,27.476 100.611,27.443 100.603,27.41 C100.596,27.385 100.588,27.358 100.577,27.333 C100.565,27.304 100.553,27.274 100.536,27.246 C100.52,27.218 100.498,27.19 100.476,27.163 C100.456,27.139 100.438,27.113 100.415,27.09 C100.367,27.043 100.312,26.997 100.245,26.955 C100.241,26.952 100.238,26.949 100.234,26.946 C99.562,26.528 95.899,24.218 94.339,23.287 C93.49,22.78 92.841,23.072 92.563,23.376 C92.393,23.634 92.244,23.834 92.051,24.071 C91.528,24.806 90.905,25.37 90.188,25.794 C88.813,26.74 87.171,27.292 85.406,27.292 C80.573,27.292 76.654,23.168 76.654,18.081 C76.654,12.994 80.573,8.87 85.406,8.87 C87.27,8.87 88.996,9.485 90.416,10.531 C90.705,10.724 90.977,10.952 91.233,11.211 C91.476,11.439 91.706,11.68 91.922,11.934 C92.246,12.174 92.904,12.498 93.727,12.028 C95.298,11.13 98.985,8.898 99.663,8.494 C99.668,8.492 99.67,8.489 99.674,8.486 C99.675,8.486 99.675,8.486 99.675,8.486 C99.741,8.445 99.797,8.401 99.846,8.355 C99.87,8.332 99.888,8.308 99.908,8.283 C99.93,8.256 99.952,8.229 99.969,8.202 C99.986,8.173 100,8.145 100.012,8.116 C100.022,8.091 100.031,8.065 100.039,8.039 C100.048,8.007 100.056,7.975 100.06,7.941 C100.062,7.922 100.061,7.902 100.062,7.882 C100.065,7.696 99.997,7.503 99.881,7.317 C97.067,3.7 92.874,1.151 88.061,0.403 C87.905,0.381 87.749,0.357 87.592,0.339 C87.523,0.33 87.452,0.321 87.382,0.313 C86.664,0.237 85.931,0.196 85.185,0.196 C78.272,0.196 72.126,3.926 68.925,9.453 C67.463,12.021 66.628,14.973 66.628,18.114 C66.628,20.654 67.175,23.069 68.156,25.259" id="Fill-8"/>
            </g>
        </g>
    </g>
</svg>